<mxfile host="app.diagrams.net" agent="Mozilla/5.0 (Macintosh; Intel Mac OS X 10_15_7) AppleWebKit/537.36 (KHTML, like Gecko) Chrome/131.0.0.0 Safari/537.36" version="25.0.3">
  <diagram name="Page-1" id="ImrPsc9vRjpVG5yYaZuu">
    <mxGraphModel dx="1563" dy="1503" grid="1" gridSize="10" guides="1" tooltips="1" connect="1" arrows="1" fold="1" page="1" pageScale="1" pageWidth="827" pageHeight="1169" background="none" math="0" shadow="0">
      <root>
        <mxCell id="0" />
        <mxCell id="1" parent="0" />
        <mxCell id="XkX4MEr9UzN4_RxHqZWG-6" value="&lt;font style=&quot;font-size: 48px;&quot;&gt;&lt;font style=&quot;&quot; color=&quot;#007fff&quot; face=&quot;Helvetica&quot;&gt;SAP&lt;/font&gt; &lt;font style=&quot;&quot; color=&quot;#ffc338&quot;&gt;Hana&lt;/font&gt;&lt;/font&gt;" style="text;strokeColor=none;fillColor=none;html=1;fontSize=24;fontStyle=1;verticalAlign=middle;align=center;" parent="1" vertex="1">
          <mxGeometry x="1030" y="533" width="100" height="40" as="geometry" />
        </mxCell>
        <mxCell id="XkX4MEr9UzN4_RxHqZWG-7" value="" style="shape=flexArrow;endArrow=classic;html=1;rounded=0;endWidth=47.272727272727266;endSize=13.945454545454544;width=20;shadow=1;fillColor=#1a427a;gradientColor=#015adf;strokeColor=#6c8ebf;" parent="1" edge="1">
          <mxGeometry width="50" height="50" relative="1" as="geometry">
            <mxPoint x="1260" y="552.17" as="sourcePoint" />
            <mxPoint x="1470" y="552.17" as="targetPoint" />
          </mxGeometry>
        </mxCell>
        <mxCell id="XkX4MEr9UzN4_RxHqZWG-10" value="" style="rounded=0;whiteSpace=wrap;html=1;fillColor=none;dashed=1;strokeWidth=3;" parent="1" vertex="1">
          <mxGeometry x="1490" y="386" width="910" height="334" as="geometry" />
        </mxCell>
        <mxCell id="XkX4MEr9UzN4_RxHqZWG-13" value="" style="rounded=0;whiteSpace=wrap;html=1;fillColor=none;" parent="1" vertex="1">
          <mxGeometry x="1630" y="446.5" width="650" height="240" as="geometry" />
        </mxCell>
        <mxCell id="XkX4MEr9UzN4_RxHqZWG-17" value="&lt;font style=&quot;font-size: 30px;&quot;&gt;&lt;font color=&quot;#ff6666&quot;&gt;databricks&lt;/font&gt;&lt;font style=&quot;&quot; color=&quot;#ff8000&quot;&gt; &lt;/font&gt;job&lt;/font&gt;" style="text;strokeColor=none;fillColor=none;html=1;fontSize=24;fontStyle=1;verticalAlign=middle;align=center;" parent="1" vertex="1">
          <mxGeometry x="1696" y="449.5" width="100" height="40" as="geometry" />
        </mxCell>
        <mxCell id="XkX4MEr9UzN4_RxHqZWG-19" value="" style="rounded=0;whiteSpace=wrap;html=1;fillColor=#90BBFC;strokeColor=#6c8ebf;" parent="1" vertex="1">
          <mxGeometry x="1763" y="490" width="180" height="140" as="geometry" />
        </mxCell>
        <mxCell id="XkX4MEr9UzN4_RxHqZWG-21" value="" style="rounded=0;whiteSpace=wrap;html=1;fillColor=#224F9C;gradientColor=#0052AB;strokeColor=#000000;" parent="1" vertex="1">
          <mxGeometry x="1967" y="490" width="180" height="140" as="geometry" />
        </mxCell>
        <mxCell id="XkX4MEr9UzN4_RxHqZWG-22" value="&lt;font style=&quot;font-size: 30px;&quot;&gt;&lt;font style=&quot;&quot; color=&quot;#007fff&quot; face=&quot;Helvetica&quot;&gt;SAP&lt;/font&gt; &lt;font style=&quot;&quot; color=&quot;#ffc338&quot;&gt;Hana&amp;nbsp; &lt;/font&gt;Connector&lt;/font&gt;" style="text;strokeColor=none;fillColor=none;html=1;fontSize=24;fontStyle=1;verticalAlign=middle;align=center;" parent="1" vertex="1">
          <mxGeometry x="1904" y="640" width="100" height="40" as="geometry" />
        </mxCell>
        <mxCell id="XkX4MEr9UzN4_RxHqZWG-23" value="&lt;font color=&quot;#ffffff&quot;&gt;Connector&amp;nbsp;&lt;/font&gt;&lt;div&gt;&lt;font color=&quot;#ffffff&quot;&gt;Instance&lt;/font&gt;&lt;/div&gt;" style="text;strokeColor=none;fillColor=none;html=1;fontSize=24;fontStyle=1;verticalAlign=middle;align=center;" parent="1" vertex="1">
          <mxGeometry x="1804" y="540" width="100" height="50" as="geometry" />
        </mxCell>
        <mxCell id="XkX4MEr9UzN4_RxHqZWG-24" value="&lt;font color=&quot;#ffffff&quot;&gt;Transform(s)&lt;/font&gt;" style="text;strokeColor=none;fillColor=none;html=1;fontSize=24;fontStyle=1;verticalAlign=middle;align=center;" parent="1" vertex="1">
          <mxGeometry x="2013" y="541" width="100" height="50" as="geometry" />
        </mxCell>
        <mxCell id="XkX4MEr9UzN4_RxHqZWG-25" value="" style="shape=image;verticalLabelPosition=bottom;labelBackgroundColor=default;verticalAlign=top;aspect=fixed;imageAspect=0;image=data:image/png,iVBORw0KGgoAAAANSUhEUgAAARYAAACcCAYAAAC6EYRFAAAAAXNSR0IArs4c6QAAAIRlWElmTU0AKgAAAAgABQESAAMAAAABAAEAAAEaAAUAAAABAAAASgEbAAUAAAABAAAAUgEoAAMAAAABAAIAAIdpAAQAAAABAAAAWgAAAAAAAACQAAAAAQAAAJAAAAABAAOgAQADAAAAAQABAACgAgAEAAAAAQAAARagAwAEAAAAAQAAAJwAAAAAGh3MHQAAAAlwSFlzAAAWJQAAFiUBSVIk8AAAQABJREFUeAHtXQl8FdXVn+W9JBC2JIRNVkG2kKCiYCBAEMV9Qau1dtHP1ra21mqr4lqxrUu/1rX2c6laq607LlVEAW1kR0UlJCCbskTWbBCWJO+9ud///8g85g0z780LCXkh9/zyz7w5995zz5x775l779y5oyiSpAWkBaQFmtgCahPLk+KOIguUjR6a1d7ve1hTtOIuC4v/fBRdmryUZraAdCzNbODWJl5coujKzkK1KlR+sxDqHbom2umKqgQNUQ4Hc12nqtAMpbQ0iIpjtLZrk/oeOQtIx3LkbJ3UOX02apR/YMdQeigQuEBV1VtVVRliV1gHMxQSi0OqcpsiAsu6Lly9BxVI2OPJc2kB6VjaeB0QhYW+3XU7O9Xr6lifIq4XijoeHZQUN7OwwgihhOBOXhKa/z41Vfs2c+6yXW7xJb9tWkA6lrZZ7uxmqGX5ORlpPi1XF8alcCgXo0PSPcocAsMdVWzCkKi9pirZTGML3w03838+oT8XCO7bmrV0Hc4lSQvYK4q0SJuwwLYpeelaTXCwrmsXwHFcoSpqf+uFh3slitiiCnV1UFEeVA3lWFUT38cQaQDiZUfFhfOBw/lGqOIxw9BnBWr9m3stW7bPGkf+bnsWiL4Dtb3rb1NX/E1h/7ROofRjVUMbLzTjKk1RR9MA5iRJg0Mpx/1mLWZmX9gfrH6uz+Ky/Yyz+dSRx6TXGz9E7EvQb8lB3NTodEodBC0yFPGcT9Pnr9vrLztp2bIA00pqexaQjqUNlLmYrmiVRXm9RDB0KnonP8CQB0dFtzmGGjiGNaoQ/zH8+rNZRcVlTqbZkT/8BL+m/cJQRb6makPhaCJyNCQIKcouIcRMXdVera8XS7ovLdnuJEfyjm4LSMdydJevsnvy0KxQvVaAeZKz4Ugu82lapxBmX0ksfPwKwBGswRzLXEXRXsryZS5Ti4owAopNFfkjz9B8xveEIgp0RRkIhxImyiRCQvlWE+JVVSjvihT/5xlFX1YfiCH/twULSMdylJYyeyk75+ZM8QtliqGp3/Grah86FLOXwt4FhjubwZqL4cubwqf8t1tR6Z5EzCHOGpRatSftkvDwCMMqyOxhLm4xHQzOV8G5vKqp+nuV+q7iAUUbahPJQ8ZtnRaQjqV1lltMrSvG5uarPmUiplW/r6vKCDb2aIciyuFQioB3Q0H1/cMdrmwpyOmbpijnIY9zMNQqwFCro5lfuIIJpR49oqVwa28bQnu368LiteCbPijmtcjA1mkB6VhaZ7k5ar1z3JAhmuo/E27kO3iCcwoK12dt4HAk+3C+CA38LUywvtdlXvE3joIawfwv1sMMq98+NEXXz0e+FyKvUXAwmpk/Hlfz8RGGQ2KeYqizNFV9pcuCFVWNyEomaQUWkI6lFRRSPBW3FA7umhr0na+q2kWIOxaFmmE2aBYwfnNB2wo081dCQp+9ozJUklNaWh9PbmPCdxTmdPCHtFGYtzkd6afCoQynLqY+4SGYEFsUoX4UUsWsrqeVvqxOl72Xxtg6mdNIx5LMpRNHN3HJJXr1llUXGJq4FFOmY9Fo+5gNmEnDhSvEdvCexiPm2UG1/ovshatr4ohtkuDqgtyMkGKMgQ5Tkf8FeB2gu8PYZx0c0H91RXsVvRdMHks6WiwgHUsrLcnKicPHK4b+Q6yv5xL843AZeDhzgFioGIpgDYl4CnMs7+xT6j7vOX/dTjP8SB1fxQuNp23NOQb6jYWbuxD5ngndOludH3hBDJlKDEN8hHjPZM0vXXmk9JP5NJ8FpGNpPts2i+TyCSOGYa3J97C47Uz0AHJRgJg3tRA8Chrumwh/IRSq/6Tr4jXfWkJb5CefHu2sTu2ja+pEOJFr4EBGQhGfTZka6F0C9WfW1gef6P3JVxW2cHnaiiwgHUsrKaxtY/O6+dXQ5WiYFyuqmgO1OwOcsggTuyuYSPnCMJRHfKo2v3PPoRvV114zl5c0xGrZw7a8vPSUDoEBQtPPQMW7Dg6mDzSy1UFRjlcIioNCeTl7UenfW1ZjmXtjLWAr1MaKkemaywJ8+7g6sPNsoSo/x5Oek3BXz0RekWEPhjoKhhHliqrdq4vAzI6+2k1qkq8VwdOrjprm64PeyY/Qs/oNnCWW21iILz8qyla4nDcy55dcZwmRP1uJBaRjSeKCKi8YPgabK92CRpePxkeH4jfV5ePbFDDrQuIBn6Y8szdN29RjdvFeM7w1HCvGDOqEF6eHqT5jGhbwTeWjq4iDoXMRyoLMhSUTW8O1SB2jLSAdS7Q9kuKsPH/wMarPfyNGCZehgLpCqch8BMc+YYdiiNcwOXtPl/1pa5Vly/YjXqRNJsVFeFQCSmvl44ak66pvJBbRPZWmqcM4fguERCVeQ7iq66IVb3sUJaMlkQWkY0miwhDYzqByr3ENOiLXNsw/ROZQWFB+/Ks3lM8R9ruMdlqRMrt4X2t1KHazw8GoGwr7p3YItL8Yw6PBgRr9f58oLt4/Xa7QtZuqVZxLx5IkxVQxdmi+qvuexpBgePDAk52IZj6UEnjbMMdyfzAUePZIrUWJKCB/SAskaAHpWBI0WFNGPzAMyDtOU4zHUnT1NLtDYV6IU4uX+P6BX/dnLijd1JT5t0ZZfLmyau6Is2GY+/BMbJghxCvYKfPu7AVfrWmN13O06hwZux+tF5jU15Wfn6ooey6nU8HeBdGqYh4Tf7ONoHFb9pJVn0cHtq0zWEZVzhqUUlGTcnz1HO0mVVPOBSe80RTeObpEFb7XYRHpWJKoWkjH0oKFUYa822miDhvLHqqFqpTjfZolim5s4wIzdda6ukMjHd0cOhTOu1Ri1ztRo12hqcZVeOzOyewIwXIwH/p0kpLKAtKxtGBx9E5NDVQE93wSEsZ6NA7uJdvJok42JnHv8Kn+s6trfI9VFOZ9lNlu38624mD4OZKdKbX9ugTVCXAmd8B3DGDHxYWkY3ExTEuxXUuqpRRqa/nyrozd2HppWugXaDffBXrCBu1NO7CAsFpsPza2/hiO5slaxbewR48vKtXXuAvk0Ue0R1VBTh9snJkjQtqffKqay/UtbgT7oCenfjdjvnws7WajluBLx9ISVnfIE01HKy/IPQHd/WvxjLkQazp6I1qkR8nnztjPpApvA/9TVcQbu/wpK/oXfbkLBeje6hzySWbW9jEjuvv9gi9U3oy5E24cFX1x3E9GFbzmjnAmHXgt0rHQCslH0rEkWZmInJyUqgzlDDiWn6GHwpf16GDCxMLi1wjxudNv0eL+D9slzK3qULf8uFY+/xJe4i/UEULzXQYH+hO8rNje3Je34dLZO8PnSJS5mNBeI1TtQjjXMQyTjqXBQkl2kI4lyQrEVIfL3RUf9pPVxOXY7pFvMfODYWFioWGIgP0exQp87vQRPaQvyVy4fCX4ZpSGmMl/2FWQNyYoDGz9IG5I0bRetkfuvB58jkQsQk8N21qGXtc1Xx7cyZ/AH8erwzVzKHQZhkJv8VxScliAdVRSEltg6ylD+6f6/Jeh4Z0HNelgIvvJ8n0hvICIKRhtNu7gLxqaUpQ1r2RzEl9ORLWq/JEnCF8oB72QGzHsGckXg0yvyEqJ5fz74TU+FsKYEzD0f/VYVLyDiSsn5mEfGuM+/JSOhQZJUoqM4ZNUvzavVs8lX23AE5IH+rev/QgbyE4VqnoOjDIUjc/PTxDiaZKGN5zPxOc2JmGW998VBcPfD7T3vZesLyRWjx0xEF9VHB1Ugj/GhPSpcB6qOTkbdij0KYqyWBHGvKBmPNtt/qq1bb4StEIDSMfSCgqt4YuCn+DTqKUp+40FUPkMdFMuwXxED/qWhvmIVJ+mXhU01LN8+8RJFWNzPslaVDojWS5vd+GoroH62omGrkzF+pyzMJLj29qRXgonp3Eda/DaAl46FG/P7VW65NKj9MlXspRJc+ohHUtzWreJZTf0QmaWjR66JD1F/wzdFa7x4IRnuulg0DB7Ylh0M74ltL5qQs4wDJSK8CoAnVGLkMB6lF1pdYXBUO35qqaehf7IAPayTGU4nAsZYndQUf+FPWXmVHbYPyvRyeij8rm7aaBWepSOpYULDg5B2zV2xICgKgqEEnzDywuGDds2Pl8xJu8j1Rf8FE9JzsGQ4my00YOfO1WVgRhT3A7nc0b1+Nx3hBqakzFv5RdH8nK5n0yVqL0QjuR0jHhGwAniFQYOeA78pzPEjndPwgRLU1Xfux3nf3HE9+UNKyP/NbkFpGNpcpN6F8jVpZW4m2NV6Q2YwBwiFP/EioLcWX9dsGLG9PC6uNiyspYWl+ET7U9XleUuwheUP0Zsbl15IhvsAVLT0I7H4YkKPsGhTa4syJ2xrz4wo7n3k91ZMHSwruhT4VDORv6joEu4R2Vq1TDsmYU1KbNUTXsrc96KMribg2qbER2OajDkQ28s5YB7OhAhsp2eQ3zJahkLWMunZTRow7luzs9v185XcwP2WbkHk68kPm1dh58faMKYkbFw5QKvDY77yfrTjZGqTxQgzU3oE3SNbqmYI1XC3/NZwEe3dbWp7/RatmxfU5p/6/gTsnUjcL6uKRfBeZyM/PleT6SO0aFgbmgh/r2NDcHnbNmlrPT6fSO+L1WxJ6VAFdov4TwLISoDoHD5uJmGSDKKFHqS6dUm1BFwLJV6zc1+TZ1Oj2ISfu3F/ZvfPJ6DrQFexr6vxWZYvCPXv+j+dqPxpOVcNORfs+UdlBxOHQBjE+Zi5uPL789lz1/xcTyZ8cLZ6HftTpuANTXcgX8UsuyFNJHecLiSCWUHHij/w8A+tsIIruq6cPWeQ1VzzqlifM5wTPj+FqGj4VQG4Wj9MkE9hllc0i/XsTibr0W44TJvkZxlpoqbYwmbBnu+Yk6iBgW0Ep8k/ScmOflRryovZoMjUfdOHtGtvtY4EROil6Vo6o+4LYPNweyHrHWYTJ0ZUkL/aOx+JnvHD+tZZ+gPYzr2RMjrizxSTB1ZufBIHNtmihfgJF/W/YEVHYvWVIKPjkt82j15aFawTr8R8c80MFTEsZ2ZirJJ6H3Nqg9p03osXrHiAEf+TwYLmOWTDLq0OR1iOpaD1uBDDzRGrLINiUez6tq9py5bFjgY7P6LX0os31LcXVdTChHrthRNybE5GPgBUQOfswFu5xndl/J8RtGX+L5yfBKF/dOqgh0fxsK9yahE/AIjJmYPECsVhz1QfDac4sN+zfdZhx6D8OKkt8+RQJaGFxF/gp7I1XCugyEK7wYdGFJFZAuxEk7zceyNO6t8l9jsdUgFOZKOgAWkYzkCRnbLwsmxsEFyuT4XjTXMu4STo6DwqZ3wR9XxUXfl1kS+GMj3j6o7hnoJn34OGuudWO/S3bqxFGSjYyH24Hs+q4NG6KbsxV997KYz+TvH5VyP7TKvwWK9vjiNDEtYmfguU8BAoxfKg8Kofz8rtdd2tagIoy5vVJ6fM1r1KY9BT9Oh0CRh4qdOYJNqXP/ThqE9XWukb+q9eHEt2GBJSiYLsC5IaiEL2B0LCwMthJOr9/B7O5h7OZ1zL9ZxA+IEEakSMV+qTNt/18C5X+/yoj7kqitzcvxZWfox/lDoVym6dgNbo3VuB3K559Q+DFu+Mny1U7OK1pVZZe+YkDvBZ4i/oRcxCHqwhxKpP3QoWI9SDV3/1k5N/Vv7fUq5156VmUfFuBEfNwypuG1ExKFwrQtW6VLXmViRO22fsfvr3ovLpEMxDZeEx0jFSELdjnqVnBwLLnputb7nvA6BVL9P9eGD6urv4GAG0gHYbsvY7lXZjUmGm7IWlj6diLFK0YPp29kYHNS0u/Di33c4mxt+PeCgEGZVJwzxcubC0qtnnTVIH7O7HRq94KNjPt2N1Bu2fvQu6FRmqyL00y5TVm1Wp0f5QsSITZVjR7wAqfiwffi7SRHZ/MHeG3pAy4XQfl7sz/yssKgIc8R2U8SWL0OPvAUihXjks5Y5OjoWVZlTvqX2vOPWHdiKsvK0Yzsr+9tPQ9v9tcN2AvgkCBqeMLbpQWV858Wl6xKx6n/xlcWcQMUUn2L8ET2YE2zzL+FhDZbZV+uK2sX6kiDzYMXBpDA/mPaN8NVOsPduvOhRWZDzCzzt+T36Jln2+HQoQcPgRO8NXXqW/vto3djKft1Hy7l0LC1Ykl4ci6ke9izphY96PYAmjW83hx/lRpVdeF7GUNYERf1JeJS7F4HWEZQpxvFYVdi/iwh1uBodgWshvw8iRcl2SAQ/I3YFDeWn3RaVvu4QHpNVNXHkJCMUehS+g9+gPjQvbuikKH/fKQJ3Dl24uiamMBmYlBY4tFCTUs2jUyk6lnK9Zlqqpt7FoU64MGw9FuuVo7HxaclYNOp7FE3jsIRzEdFlKJQAFp89r/j9N1Yr1bUDEviO89bxg7L9Iu0v6Ijw8xqZkByZ52jQA3PKYhcmYu42fOLZbkWle6z6xfq9Ob93O78/vUeK4X8UCk/BlEnksbQl3S6821SSGlQu7rC0ZLuFL3+2MgtEV8pWpnxrVzdRx2JeLx/17gx2uBwr0G5AAx2IQuSTmaiyhJ/CgjT1KcR5sLMvqyaRJzOV40fkob/zBNwKn8xkwsnQ61XAqSwLBNQruyfQ6LeMGtW+k6+uY71fuQuO8UfopaSb12E5VuOxdLVuGKcnOpyzyJA/k8gCUZUxifRqE6o4DoUweVu+tfZcc44lliHYaFPTav+o4Ts7aPnHIu6hr80IZWUwJH4rDPWLj/uWlCeyFQGGX5N01f8wnlLVGarvB9kLlnv+ds9arMbtssef6RPa9+BQfo2Vvlw8FyFWPIzVavAEqhybOd2StXDlq5HAOD9evUTRx24c2iXdp3bQhFbTqffwXV7XyMQRLYObyALSsTSRIRsjxsWxfKzXBS/u9MlXFV5lisLju1QFA2/gpb++SEMHEylX/gg3aKEU+TTl9n1BbZ25G5sX+YswhBm7uIyrdD0RJ4SH7y/PwlqUQp8qfolE4+BUsEfVAWrQpw5KbQHvec3ne9jrojxKqDxtVGejNjAUT6D4jevzIPsNiL+3y7zibxqykIcksECkAiaBLm1OBbtjaTDAZtzK/6ob4s3K1L1licyR8J0aTahPYnjUDwXL1bAR4lqQELd7FOJF7IvySI2hlPXz+IpAREicH1VwcGogeDLeB/ohGv13gRTbY2xIEHiNQPlEU7Q78YrC13FERoJ3FOZ0UOqVQbqqYV8XcS0mq7O5wRWuMYR8Ls2YV/JGJLL80eIWkI6lBYugwbFMwzqV8OQtVWGBoLGwxSzGMv4nFZ9/XpeiLzeCb/UTrlojkrpzwohLsZDtWvRghmL2tav5eMgsbMT5RjXEP4QReiujPn09FrId1lvO2Nku3V9rjMSj49MwcTzN/li84Zq+hlPbGFCVO7vPL13oegG2AG4UtTt9X3/D0M+CUa7D9hIDaQjTGJAt32622SwZTs26lgy6tDkduNS+PEO/WFfFjWgqJzY0wLAd2MPAE5IAeh8z0Ir+bYT0L7ouXv6tVyNx/Yuxv/0vNFWcBV8zhr0HS2MMN0zc8JfwBUE9pMzudEbp14kubON+Mv3a1ef5sMu+0NSbsaamp3UhH68HTm2bZqgrDSP0ROXO+v94mTviNUJXbevYYX3SdH08Ti6Fxz0X8jAlE03gSccSbZKkOGPZS2pBC2DGUj91/MhRmhL6DdTIQw9jmNnDoFrm+zEYUryEd3neQm/gU69vOTM9hif9RTB0I5okd/ifQJ7ZOJEXV9zW4/wtTNC+p6T65nb9yJvz2lV44qBQoHYyHntfAbn5VrmsVHBau/G/GI7xDUXXX8sqKo56PYDx3YiT0mnt6y7Cyt/JmqZ+H07xwMbhDgmQl3QsDnZpaRbrgKQksAA/2oX2czoa0WVokOPQ5e9lOoAG9Tg8WoOezAysaZ+Zqe35XPW4RgVy1OqxOSOx89p1kM/9UvKssulg8HLffnzD6AURUj/QalM/zFy2zPEdJM51+ALa9xF3EroP4cV6VlkQxXeZSuCo/qNr+tud5xd/ifysvtLV2tPRS/lVQe7FmmYMwVOsW/G0q711job5QFY1wPczw6t18bsuhO8KdZX7sbjatSUCUC6SkskC4RW2Ssp56GEASiEKKGpbR+iKhisW492ZuejN/KvzghXfII6tbTtf0VpsApXlT52I3sRFWKMyDi86HmdPCO+1QTWwgF5V5u3y7ZlrnTyuHJf7MziUgcjtWjiodta04YoklPV47D0DrwD8t1NV6CO1tLTeWZNDueXjh09WhJ6vKsY1Dk6VPaDtGLZ9hCdA26HjeEjgAkE6GulYDjVni3PC9aHFtZAKRFmA+6hsL/tquF8XU1BA5yJwAhpy5JFtODKGMHgTGF8HFCU7jeBDXpe+wxloOwtzuvlCSiHkoHekTMJLhJ2sTgLNlStsV8FfvRdQtCd1IY7Hk5iReMP4V9AjwxqXFQgNvQINH3NB6oeZRsd31MWLPT+eLp8wYphmiAuwBcNF6AGNgqdgB+oghZf3i3ngv6Gr+lz0hPoiv3sQIfLBMtljOWiuZPklHUuylISDHnwiUpled7IIKedgCHQ+Cms45izsDQ87tCkvotF/2vn0FX/3OgHL9SYjjYph2CZ/PGReDOfChhrZrCmsDl4PgBN5F70n7N6mDgEvegEehk9wbLOxx+1bQSM4G+8obYUuVr/jcFUHWBVnjemk7tnzczijAuR/KtLZV+RyS5pVCH8SQ7/FJb6s5ZOwr4vTlxClY3E1c4sFoDwlJbkF1OqC3C4h1RiNxn0aehJ4QhJeCGdXuwyTne+HFO3NbgtXvGcPdDvnFgq9Oysj6zV1AoZWP0a8YW5xD/LRPxFqMTzIowEj9En3KatWenVolIEvEfwPvkwwCY7jXPREuoAVVQ8hHfMo4nZN1Vev2+ef1/DBtnD20rGEzZD0/6IKNOm1bcMKohFrO8aMyPanKCehU/BTtEV8qyd6ngMNlRs1lWK4sMRQfH9JZAk+J2X9AeVkTPDy+0RXArZd/qEA7M9vRau6fpUQoXXL9dKlk4ow5+ORygtGTMVQivInQ/++uI5IDwg8PKGCbKHej4wWba0Uc5y2m5SOxaOxWzga3lGT1BosgIZnKHj5D+/JvD9p68i1uhIajEctd6GhwtE00IFhUi4mP/HyoJGHydbPMheuwFYI8YlvKsN5Fe0Zm1eKbyZjg23xS0zuXgD53PJF8WG8ElAMfP9IK1m31//xScuKPe27y5x3FeYMwvtKP8Mcynk4HQDgzeYDIyY6FEz2YswlXgsJ7bmgv+6TXkVrysH2TBHv5DmFjNjcFmC5SmphC3A40rWjcnL3JQmsSMWLeDVbRw4MiNAJUP/vfl3tyMVpNtqL88/QD/gwa+GKP9jCXE8hRcX2DH3wBGYAOhH/RDfoQ0U1XszS1aVqAlslbCkc3DU14L8Gk8xTkdlAiI1sis3MU9EFwiMdTBIrN8PRFGcsKN2MCnnIRTCuSU49Fsi9TH7+w7RQchylY2nBcuDTnx1lq8b4dOURFEQ22tTCQJ12Z/dPvb9Dw9W7WzuqA1P8ytRURb0H7+lgkUdU2+QJ16R8gjUhT3RdUPKm10tGQj5BOtao13c/sai4fDp7TR4Ju8N9Dw2eO9/1Q5LOQKSupbALBP9RJ8Qlekj9onNK141et3WomDBiLLT4E0QUUBVIkgvkaIgko0hhJ5lebUKd8JcQtZrr8dbxveEWi0fIuPBt2J7t5a4LSqclYgS+r5O2r7Z7SPj/3F7XL6rF+wBR7gX+Bo25ChO8Hymaenciu/wnoseOsbkTdE3ci6dYQ5F/JtJG6hh3uUvBaU0odEOKobzbqT5tYyIbbpcVDurdPpRyO/zdFZAb/saQdCyJlM6Rixsp9COXpczJtMCB/VTqp/l15XfWYQwbCzod38IRPJi5oPRvZnwvR07C6qGUvkLUf5iu6z3246vrNuICu2p4naczemGO5jXvi9hscqJO0UPB+hKVPYkzIbsT/EfksTicjJKKgFoDK3sV5S8ZHWpXq7MO7OkbJcTlhD27yq2r6Ezug6zOkGF9LC6/hOhit5ZkS8fSgtZvWKcytb2qvsIXdmxDGI4WuI7kE2Fov+u6qPgjr6oijVqW3zutY2qXHH9I/ZTDI+t3hBrkcJ3Ibvid27suKnncq2x7PH5etXxP2nW6UO5EWLrVobBycea33jC+FEK9ObNT7Txl1jo4AuTskSomDs1XDf2dhkV8fmuy8IbbQmDrXfUSuaTfapmW/y0dSwuXAZ3AVkyU4tXjR9vr2gXsqji0uiDmFV6Gl5nefVHJ+kRUDvdgAsrV7XT1wQBa/SHOC40cWZage3FdxoKSokRkV0zMzddCClbFCp9dZ748iRa/F0Ovm7NSsp/yOodi5l82Jq93e5+Yj/XG/U2eeTS7Qng8fb/q2/unjKINnr7eaKaXx+a3gHQszW9jTzmgYWqVE3PHqCHxAhIMsN75IwI432mot2Gl6z/wjhBfxrO350hU6w9EUivH5B2j+IM34c7/KyywY3B02QvkrIrX8YXBu7qeXrzWbcGbwIrdXcGKjljO8gnePB50yECLOqGnpSnioZ0d6+46LpEhD5fKFOa0rwioz2HIM9XBBpTNdTMzg4a4O3tR6XKvNrDaQ/5ufgtEV67mz0/m4MECFWNz8Naw+hTe7u0Ap4A1HweJ8xX4OFjIMNQLFDUwD8vo9yTSuGowuRrQxEPoZQyHb+FcRaQO8AdbLno1N7bzqf9OLyrdAV7Yd3DvlVFpe9KqFP+7mGyegJlgxIwivojMLSffDwVC07otXbU2KjTGCdJp5eOGpGuK/yw4zVcY1eawmBVGc6IYO+Td12VhyZuJXHOMrGVQM1kgUqmaSb4U20gLbM7PyWyvKddjDcg1DfMLUQ4GH3jHGhCxRtPEZcFQaF12gt/fqR434ruYe7kbbqUvVAw/YTFV5dwFd1Sq14P5/n0i7CCC7fSLNUN5kr0dehAL0Rftx8TtCjyH+mP2gpJ3LWFxf3I7S/jJYWpQzMNaHJ/DXBAW4olvMUfzz6wFJdPjCpQRksIC0rEkRTG4K1E5ITfXMIxb0FM5A82dT0Qiq6U515CCEtyP+RdDCd4V2J9e1iuBbSaX5+Wl9+4YmoYNqa+Cg+kKcdanLUoauky1IQOL1sQxPk3THBo9hiViDSaXX05kAR6vlg5FBAOdDEV7DwvlchxkczpoG65xUWVa6tUD5zrvD0NZkpLPAtKxJF+ZOGpUlT9iqqKLa7C9wMmIELXgjD0MP0pybyj0a+zoNuexeSWrpx8ymnAUG2aWF+YOxUYJ0yAC2zSIbDivyNMXVpDoDgoZmJJVVPZk1qEXwW0dPBM3tPILf7eQrt6pCQObbqvoCEURsyvHO0NfKkbw6oxFqzZGhcqTVmEB1htJrcgC+ID67XAweOdGxRyJwiXyEeKK1noDu9Yr4jT0IsozFxWXRAI9/Ng2Lud8jLfQe1HHoweTgSRO9WM93MrGTCV4oZrA8IuP1itS6gcKTZyHPX5vxRabGdwGzkZV8GKlQaE8121hyTO2MHnaiizgVHFakfptU9Ut541q366q9g/ovUxEQ8xF84+af+HakUDI2IDewP8EQqKsW4Ifi68cn3cbOjzjMBQphKj2rCToVWxDXiUBVbu/x/ziD71aHr5DrRyfMwzOagR28L/Lp2rDOcax+RT4GFEElzg/a1HJ3V5ly3jJawHpWJK3bOJqtq0wb4Q/EOJXBvnezBA4mEh58geGK1wE9w4meB+v3y+Ku31aui2uUEuEynEjHsUs7vFgVUPWhxj2PGIJjvuz6pSh/YXfl4Oh02/xxvUkOhOrQzmgrPgQ46odWQtKv28LjitfRkheC0QqYvKqKDWLZwHuc4J1I/jujvod9DA4hInQAQcTdgzP4TnyrMyUPfO8bsJNIbsLRg7ueNrUder06bapkEgWh/zgvr0+xXcSeikXYreFqdChi9WhcNIZwpaB/5VRX3tL1tJ1nnfwPyQzyUhKC0jHkpTF0jilygtyp2mK0Qev6fwci92itikJOxhsdo0+zZPoNyzKnF+6CLlY23vjMrWk4rtPvna1J/oU9XvIh1tp9rZmENaBm3ULZV5IFc9n7Ws3L5GXEC1ZyZ9JbgHpWJK8gBJVDw0Zn/rI/T0mSQejcV9qT49GjdeSxFL0bmZoIWNexuKVX9jjJHrO1bg763eO8OGzqshzHHoq4x1kcG+Yt7hHrrY/7W23z4s4pJOsVmgB6VhaYaHFU5nOZWd+zkCsYv0htkiYjK7LuEPHMWIP+ivzMYfyYkqKNqfDhyXb48l1Cq8Zm9etXjN+gSHYyahMZ1t7KOH44Xla9X2smv0IW8W9kjWvZLOTHMk7uiwgHcvRVZ5RV8NHvDvT9p+Cz2ZMwebVV2Juo/ehDkbhN5XxqVX19aAIzPW6gndzfu926b4uV2A0NQG9H86jpEVljhM4k0UIew8fLnuvi5axItEXEe3y5HnrsYB0LK2nrBqtKRel6ap/InoThRDyW755fKiDESvxgmNJUBX3dl9QujxWZhXjRpyOIc/VEDMWPZVjrL0UVig8Tf4WvBlY4PbyPrHnyz6Lyzx/ZyhWvjKs9VhAOpbWU1aHrek2DFs01ZiEzavPwiPoK1j4dgeDpzhL8I3otfgI/a32j9AzfaoaegofgB+A3k+eNW3YoShKDZzTGwjHhk6BldnzV209bKWlgFZpAelYWmWxNV5p9CQ0bJSNpzXaZLiVq/A6QAEdhLXXgVNuaPc5Jlrfr+7U997jZs2qww5x72BSNgMVZpw1LiuQjm5LUBhLMYdyIzY12IRd7zY1XkOZ8miwgHQsR0MpNuIaRGH/tN1Keu9QCN9xFuov4Bz6cTWdSawYcDjcwnId3rDmRlOjMfxBR+UAMZzvKAUMYyNeJPwJeiibshd8tcYMl8e2bQHpWNp2+SvhlwLVlGwss78NDuQKzL/4HN7hibISHUrQMOrQQ/lNvdBndT+1eKPbxlBRCeVJm7GAdCxtpqhjXyi3MUgJqO3rleALuq6c6vA+T7i7gqdLGPYoz4V05da6ul275MRsbLu21VDpWNpqybtcd8WYQZ1Uf2oegv+JN5CPNXsvKdgQpjYo1vsNMbouVannlxNdREi2tABGzZKkBWwWENMVbUNR/5SOwfQfY33LfUD7kKqO7tpOWa3OLuYKWknSAjEtIB1LTPO07UA+QVJGjTrwztGyZUFUloOzu23bNPLqpQWkBaQFpAWkBaQFpAWkBaQFpAWkBaQFpAWkBaQFpAWkBaQFpAWkBaQFpAWkBaQFpAWkBaQFpAWkBaQFpAWkBaQFpAWkBaQFpAWkBaQFpAWkBaQFpAWkBaQFpAWkBaQFpAWkBaQFpAWkBaQFpAWkBaQFpAWkBaQFpAWkBaQFpAWkBaQFpAWkBaQFpAWkBaQFpAWkBaQFpAWkBaQFpAWkBaQFpAWkBaQFpAWkBaQFpAWkBaQFpAWkBaQFpAWkBY6wBVKQ35sAPx/Bb5Cb3yHn+VLgZEBSy1ngIWTNsnDCMS2nVpPn3B8S3wZ4nUuAM4Fko3ehUD1gL4td4LWasoh85PsIWLeuIQ9+y8j6PSMaUFLLWoCOPtSyKjR77nQi3wDnN+Q0BsdZwKsAb3zJQvyOk7V9mHqxfJJJT1Mvx+ORdCyOCoBpema3cMmXFjhcC6RDAJ2IE50K5m+dAiSv8RbwNT5pm03Ju0Y3wN9gAWuPi91Vgj0AScljgdwYqnRC2HExwmVQIywgHUviRhuBJJwv6uuQ9EHw7gPKHcIkq+Us0D9G1hx6pMUIl0GNsEAyDIWottOYshGXc0SSsIfCyTUnCjoxJa/FLfBJDA32I2xbjHAZ1AgLJItjaYTqMom0gGcLfIuY8wHrsJWJeSMoAd7niaSms4AcCjWdLU1J9spr8pP52Bp1TsSefCJ5JfAngEsbOgL7gFLgeWA2kOzUmnr1inQsyV6dpH5NZYGvIegK4HtAD6AKWAAUA5Ka2ALSsSRu0Hh391Z1Z2m4/Naoc+Ild6CX8kxjEiZBmnj1LglUPKiCnGM5aAv5S1pAWqCJLJAsjqVVeeM4tj+ariXOpcpgaQFnCyQyFOKCsGMBruMgugJ0TGxIewGOYflYbx1QAzQ3ZSCDgcApwADAXIvApc9cR7IC+ALgE4EAYKX2OGkH2B0rhwRc4GZ9/SAb56az4DEToC2ciIutugN2uYxLHSjblEVeLKKOwwAu7hoMUDb1Y3rOD6wGlgMrAftyfMZj+TgRr223U0CCPF5nDsC6MAjgehAS5ZcBXwJ84rIT8HrNiBq+Ri5AdFpkWAu+U91iXTgBGAr0A7iI8W6gGjCpC344lRtttwdwW0Jgpnc60sb9geMBlhFX+JJ4vWY95ATxKmATwHZypCgVGVEfs1zs+bKObrczG84ZxveSRgKsf70A8nhdrMNfAcsAtnVHu3lxLGyA44GLAFag3g0wjYjTcKNhBVoP8PgB8ApAJZqaeMFXACcBrIDUiY2fF24SC3AzsAlgA3wLWACYRjgdv6cCGYBJNBor5B3A5w1MFs6TgCmbcVhBmZ8TTQFzAMDGZRLTsHCXAvcDQSAWUf7ZwPkAbd0H4GQjdTOJDWwrwOtj5XgBmAkwLxLjUm/ma/LwM9xoF+NIPRpL1OfHwCiAZUEdrfagQ6Dj2wiUAUsA2p/l4OQswI4i2vzvAPW26z4XvL8CJjHf7wITgWMBNgA2dh/wIFANmPRT/GA9DpmMhuNmHJ8Gltv4sU5zEPg9gEfWwb4Ay4j5WokOizbYArC8aIt3gQ1Ac1JnCP8FMBqw1l0zT/L+BnxgMhqOKo604yXABIBlTVCeSXX4wWvZAKwBXgXmAQHAEzFzGo4FWQJQoFnY8Y4sLCrNAiexor8MOKVbDP5JQDzi3eYagHIrASdZTrx9iMuZ/z8AbPSk3wDbAKf4ZzJCA3XAkY3BKV6ivHcgh3ZwIx0Bk4CZwHogEfkrEZ8VlhWclA4EAScZb4DPCmSlB3DiFp/Ow6Sr8aMIYIN1ku3EY+9xIfBrwOrIcepI1N1JDnnPWlLQsdEBsdE6xTdtYSZhA3CKVwr+aWakOEfWn4eBBQB7fU7y3HisR9T1Q+AGgD0+J5oFJhupXQ7rvFl/ndKZPDqBOwHecOwyzHM6FWu54jTsFKfg+DGwEzDjxjryRk2H/BBApx6XUhDjLGA+UAPEEh4rbDXSXg6wIr/oIseLY+Fd4QmA3p8FFCtPtzAWzPMAu3YsWBayU1y7Y3FrcE5pY/H+g/xoVydqBybvMF8BsWTEC/sU6Xl9aQAL3Sn+DPBZHlaK5Vh6NkQ07e8k0wuPd7lXgP4N8twOsRzLMw2JxuNIB7wHcMvb7liYt1Nc3jS9OJYLEY83tVh5Osl34vGm9h4wGfABVjocx0Kn8jtgB+CUL3l0jL0BK/GmNgVYBbili8Wnk6XedpuDdZBY+acCa4EQEEuglzA6g2sBejan+PEcSz+k+xdwOA7OzJeV4kXgLaAaMPnWo92xNIUNKN/NsbAh3Qtsd9HHqpuX3ysg5wLAzQEn6lhOhaxngaZoULWQw8Zpr9hgRSiWY2EP5TiANwjKimUPeyU/HMfyU+RFuzr1JGLpECuMsngjuQroBJjUWMfSBQLuANhDdMqX9Zg9iz6A9cbC38OBdYBTOq88Xs8coCNwCNFzjQcONxO7Mmw0dYCdz/NYjiUb4c8ATeFUzLzZQCiPhjZ51qPdscSrwNa0sX6/g/zotK3EnsX1QKLd6lj5MGwT4BYnUceyHrI4nHSTlyifFXAuwF6oE8VyLLxJLQO82KupHAuHf6uBIJDotcaLT+f/INADMKkxjiUDiW8DKgCnPFnX6VT6AVangtNwj+lJHJ3Skce0OwHWg28Bt3bMuLTRI8Ah3bDu4D0MHMvAGMSKtgH4EqDRmRkLkp5vJEDvab0At0qEaK6kIeRXwPkA5zrciBfErl8xwF4RnRjjDwNOAPoDfsAkVlyvREO9BbSzJOiM3ycD7S088+cG/FgL7DcZDUdeC23FimQSeaOAO4GOJtPlWAU+7fwZsAmgbXOBEQBtbndYfcBrKjrWQRCvg9dJnWjzaoB15yRgCHAM4Ebs+p8KXAP8BdgLeCWO43sCtN2RoLOQyc+AQUC8PL9GnFXAVmAL0B9gmxgIOJUHbfg88AxQDjSWMpCQOt4EsN3Zifk8AjwKbAbYXqzUFSdXWBkNvxmPZcx0HwCUQ2K9uw4YB6QCVmLHhLr81cpkgdOrhQAKdQLv3rzzTgboLHghbKhsZOzOZQHHAv8LeO06L0ZcNlQ7TQVjBcALctKFvArgdoAVjnmzgVIX6kSDs7JfADAPr3cca4+FDZjXSFkmJuL314CTTiwEVsJMB1A3K1FPdoWd5Jg83ikeBk4AWAFoY6YjqFc2QNu9C3i9vtcRl9dlpQdw4jU9G895APPmdXYAqA+vj2XQH2DFWw+Y1+F03I/w4YBdF5adU3w3Husr7Ujb01n9D/BLgHpZ6RWcOMkoAf80a8SG36zfLwLx7LIQcU4FGJ/24I2HefNIe9DJ0l4zgX0AdaBM6jsAsDusWeAFALuulQ3xcYgQ68BNQA1gj89zth226b6APR+wwvQd/HdKyzr+U8DuPHiTZnv7F2Bej5l+G3h/AOhgItQPv2I5le0InwbQYG5KIihMzDwHYEZmpm5HJ8fCIcJzgJOBTTnFCO8OMK9YxItkI7gX2AuY6d2OVseC6IcQG/lawCn9n8CnA/BCrBBOMkxeKcJZ6CxYe+MDK0IsC9qAjSpeI6Dsw3EszyB9OyCq4uDcTtQnF5gBmNfjdPwM4XSWVkrEsdChTAXYkGkn5ssbJI92m70CnpMObo7lFsSvdklDOXSMvwZoj3jtgfbidV4CfAqwLtLp2HUEKzwJ6lTv7Y6F8n4L1AFO10UenUpvwCkfsMN0K/47pZ8NPtuXG9GRsidDn8F29QTQE0gBouhJnDllQN524Pqo2N5OWOA0iJtc8ulYTgKsxMrChuWWbjnCWIESpTuQwO5l7XkcKceyFbrY8zbPP0fYhEQvDvGHxpBpymZjt1e0B8CL55QYJ1FixXwJMPN2OvKuayWvjoWV+kRrwji/E3Es1PvfgJO+5NUBBYDdjmDFJTqZWI55FsLjORbaiE7NTT/yHwHY0OMRHYKTnPfBj3eTnII49wCDAFdb1CLQKQMa8clYCREWi+gxY/WEnBwLlXVzADS6vTLGyt8axgJ5CojViI6EYxkCHZxsTd4O4DdAY+lWJHSTTX5jHAsdeWPpFCRcCLjp9DzCUi3CvTiW+Yg/1pLGy89EHMsVELgZcNP5WoQdcmf2ooSHOPEcC211NeCmG/mPAXSOXugORHKStQH8q7wIcIpjduHOQKC1cK1xl+GEijLzxlAZEv0tgYT9EDcHYBfTiX4M5m6nAA88dtlYcF95iNucUe6PIXwpwh6MER4v6D5EYC+xKWnMYQhbgrSLAd64nOgyMGPdwe1pdoHxBrDIHtBE52wHeQBviE7Ea6GTqncKbGYe28RUgDd6J+IN83GAN+btThEceFsceGSxHfIm9SOAc2j0Fa69EoRFkelYJkdxD57swU9W9BUHWY369Xuk8loQoxD3OJdcdoL/LmC4hHthv4lIHwPs+bQUFbhkzAkzVozDJVaGpiI6YrOeNFbmn5Fwnktif4LyZyL+iy6ymoLdEUI4hHcj1mXOvRxpol6vA88DTg2cjptzYPcCWwGvNAcR3doThzj/BD4EfgIMBqhHCuCkA9gHyKwwo02G7UgFi2y8xpzWINGCGAmtSnZFPLehznMI2x9DjtegDYhY5RI5Xs8sXriL2Cg2C8eJ6Dj/6xSQIO8jxOfwsymIFYrD0sMh3j3Z03CjPm4BNn4dzjcBXu/GtuSeTrMRq5tLTOa7FmiJm5IP+Q4D6IjtRH1eBehUyuyBcc7Zxp8AYtXrUxDOXhIfmNC5XQWwV8e2SidzCJmOxc2QrAw05OESPeKXHoWw0bVzifsF+OzuHS6thgDOZbQUpbpkzGtrCsdJR324zsBFxUazy5GSd1UnmuTEdOCxp7DNgd+UrL4Q1t9FIJ1aSzgVF3UibE4NrAIa43B5A3oQWA649VwQFCY6kSnA4wA7Co8AZwO8MUQNZ+M5Ft4hWCEOl6hwaQwhVm9J5Z28MpOzYsW7eMaLR6ycHOY5kbX3lGh4vLSU5+bEGdaUldbNQVltzTzjUVPYm3lwOF3pklmmhR/LhusQ71NL3Ob4Gav+8Rrc7NocuniVmYWIFwGc0qD+iRDrwwbgGmAp4PWG1AFxLwf+DdwHjAPSgDCZjsWt8jBTt7AGEU1+oOeL8n6WHJpKF8pJtIFZ1Ij5M55cayOyCmK6phq+UG48Pax5H4nfvLbDLT/e5NhraG5yc2680R7uNTSX7idB8K+A4wGzXXvNi2VDh3018DLAHr1XB8qJ3e8DTwHnAWHHZirApyVOxHFdulNAgjwWVA+PaVh4bhO91MWt0D2KD0ejt03Us5vyYzVYhsXTb6MpyHZkOrchki2qp1O364unn114ovHt6c3z3vhBuzuRtRLHsi+7/HQuzUlsZG7D7X4Ia8oySvQ62C5WAt84JGQ5nQ6w5zEQSLTceN0cVVwP3Ab8C1gMbAHc2iOCIjQEvx4GJpBDx0HaCvTnDxuxIvQFNtr4iZ7SgZ3gMRG7YnQuTnQcmNTZreCd0jjxaHh2H1uC2Ih41zOdulUH9tT8QFMMiXgnaQpqqobEitfFRaEvXfh2NhtLog3GLiPeOSf13YZswxEW6e7HE9TE4azzRcBjwADgFqAnYCXWn0uBCuABgO06UapBgjeAmQCvdzyQC7D8jgW6AayjTtQLzHuARWblXu8UCzwKyXcJS4RNB8WZZS/EOxInjZ3ofDCbosEMhpzGOpZ4FTvWHde8Jt55nYgN73ingAR5QxG/qRzCuZDlVpG8qtUREWP1fD/zKugIxNuEPAgnYq87GzDbjVOc5uLxhvu/wDvAS8ALAJ2Andg+fgRcBrg5cnsap3Pe3Pmw5FHgV8D1wO+BZ4BiwO3mPxphp5oGWoATJ8oEkx7L7hmd4sbinYdAdoW90DpE+tYl4ljw2fDiNW6X5GF2ToOMWBU9VvpYYbSnF902uAjpA/4PXMISYd+eSOQ4ce9A+OE6qXMgg87ciYJgNkUPzUl2Y3i8qVW7JGRvheVDR3mkKYQM1zdkypvvMwCdDPl2ovP7JUC7N0U9r4Wcz4GngJuAacAHwF7AiS42HctMhDrdaTnsOBG4BDDj4mdCdAxi35pAiq8QdzXACudEt4DZySnAA4/e/DsAr6mx10M7cSjjRNlgdnYKsPGetp2bpx3wYzIw0WQ04ngG0lzQiHRuSboj4LdugR74/RCHd89BLnE/Bt/Nni5JmpXNnsEGwM25sDdQALBtHGkyb1qsg3QyfwU+clFiIPi/AcYAXnucGQ3xYzkjPk19H/gT8DXgRAPMxlWG0IVOMcDrAfwQmOISHovdDoH3A0NiRbKF0QvSO26z8c3T0/GDHtM0ssmPd+T4kx78YiArXuQY4bxD7HcJHwY+x5nx6EVEYAE5ESvELwEeEyXmfx/Aa21KojPnzSVR6oIEbIj5gFt53YuweiBZyIAi8wDWQSfiTe02YKRToAdeCuIQh0ushxyqPNJwdJLHGyjbynGAm/2Zju2U7eIhYDpwJhCPliDCDpdIUfXvQkSiJ3RCHfgfA4mMt3siPu/M7OY6yTR5ixF+EmCl/jj5D0DjmfGsR3ZX/wjE8qwIjhDjXQ5wLM+ekFWW/Xc8o/ZH+tddZOwG/0rAy92Mdxt73uZ5JcKeBY4HvNIJiDgHMGW4HWcgjr2SPQBePLuwF/l9wCvxhsQGuAlw0+UbhHUGrMSycov/AsLYCBpDryCRk9wS8E+zCUzDORsZHZ5TGjqfuQBvcl6JNmd50pFeCbgNp2YhzKnNsE4MAOzEXu7VwAbASVeW60tAH8BOfjDOAv4BfAXwutjW3wOGA7GI5fRfwClP2iZC9MQfAk4RyWOGK4DfAYMBe+UEK0yUw7sbDcQ0bvJMvpNjQbLwPrmbY6SvRthM4DzA7Q6gI2wkcD+wBojXeKhTPMfChnArYOpvP36AMLujBOsQog3piOzpzXOGfQT8DOgOuFFPBPCutAhgxTDTux0b61gobz1Ah3gi4EascOcAdAJbADc9yGc9YeW2UjI4FupzCkCbuunPm14xwBvcEMCN6KQo6w8A6zrr7Vrgx4CTc0nUsUBMeEKZevCG66Qvh3d/AexO/FLwVgF2R8a692+AbceNvosA1gen/B6w3lnZNb8P4J0vA7BTChgjAN6JzgZKgWXAdoBG5vzFUGA0MAg4FnBzPgiKIqd4ryJGPsAuWmpU7AMnNBL1GAj8DPgcWAnsB3hdvYBRAHWmLk7XBHbCVIMULAwa1Env8eA/ASwBNgB1AG3HStQFuB4gfQ3cBDCuEzE+ZR0HfAdgJebdtQog8fpYVgwfDmQDXoh6N5Zox6uAscBGoAjYBFAmHcIAIK8B/XCM1bv4F8LnAKzUXsnJ3l7TJhrvMyR4HeA1d3dIrIGXC/QBTgNoj+XAOoAOnuXHujkEYBn1Bcw6yLp7C8C68QbAhh+PYl37TiR+BjgG+AHA+m8llsOVwFbgMYD5klYDbLN2ou7nA6xj/wE+ADYAJF7vuQDz6Q040dt2ZgcwWNmZMStLLNAY3wLrARpzA1AJhIBY6exhixH/ZMCJ2HA+BoKAPZ31nHlWAN8A1IWNdgtAJ2ON5+X3mUgTj/IRgdcdSx4dEJ0u9dgGUD86bytl4eRpIJYchvH6dgFsxLw+5k3bswxYieOlt4azsdgr6QPgxbOxVYapEysq9SE2AKzgtYA9rv38c8Rh2bJx2ilWj4XOKJazssuynr+CE7sePKezpmNwIjqUxwGWpVNaK48OktfPukewrNge3NoSy20NcDGQBpg0Cz8oyyqbv3lDGQC4Ecv0eIBOwJ7WPGd5XQiYdtfxmzc2M9x+pB6su18CCxvwRQPPrb4sQzhvpFFE5XoAdwONaZR2xczzP0AeexPmufUYy7HQ854B8G7NxmVN19jfMyDnTYAN1UkG84tHXRDhd4BT+ng8q2wW8BBgZiNlOeVVDlmXAay4TuGJOpanIKfMRZaT/Hg8VryJgB9woliO5QUkaGrHsgIy3RwL9esNPAt4cS7xrt0evhpypwCs5ya5ORY6qViOhekphzdG2tiel3nOPOnUTeL1zQfM8MM50mdMNgXbj3QuPYE7gKZwLr+EnEyADdpJ6ViOBUmUVIBd76WAm5d0kuvEo0M5EbgFoCd2iuPFsSBpeMi3wEWGk1yTx7RWonMZDDwDmHEae6yGjFyAjs/prke5rwEsYys9gBM32w5DWD+APaTG6mWmYxkWAG5OBUHhIZUZ335sCcdCnboBDwFuNyO7nvHO6yHrZSAfsDvKw3EsEBe27c9x3Ag46cEbzmcA6wiJdSEPYNk4xffKq0P6qwG2V1diZsz4cmAN4FW4Nd4OpOMcCLtFBA1pDTd/07GcBMQiHYH9gb8Dbg3GlOd05JCBaYcAbMi/AbYCTnHPBN8LUSd650QLxEk2deoOUC/emZz0iscrQrp+AMuOd31WXqc0dPCMY6VYjqVXQ0TeHP4DOMn0wvsn0uYAtFssou5u8l5AmL0hxpJlDXvFRW6soZA1fXucXAR8Drj1Bt30tvI5lGCPkvZ0ssXhOhaIDdvozzi6OULqXwSYxPp3HPAqYNXV6+/tSPcjoAPgiXjhfQDe4TcCXjLixfwBoOGoMImOhRXaKf0y8McA8YiNgV093vHeAZxk2Xm8CxcB5wGskGaD4jxSBWCPz/NzAK9EecOARwE3efY8YsmmvQcDTwFulcIuby3iXgmw4psUq3G+jUimHcz4D+OHXa55fowZCbpcSvsAAAGgSURBVEeW44VAMWCGxzpy+Po+wDLjncyeL1iHECunm0zenKzXeUjiGIy3XOTyxnl6jHTWINZn1qMfAJ8Cbno68enAfgbwBmK2C/w8hD4Exyn9HvAHHhLbndEJQXQUsZzgS5bkLJuOwAXAEsBJBzuPN+zHATol63DOU0EjTZhYqTjJykbKrhOHSzQyG281QE/MSjQH4N3SSlS6K8D4dqoFowoI2APinPdA+BnAJGAQQPk04n5gMzAfoD6lgJ06g0EjUi+CRKPx93aA3bpEiTLZtc0BugCmoWkLYgfwNcCK44UooxCYAgwBMgDajxWMslYBLwK0O3W3Eq+DNwSSPYz2KQ+HHPzHm4DZoA9yD9jjWzDoIOw0GIyLgLEAhwrUl3VhN7AOKAJmA2VAIkTduwN+WyLyee3s0TWGspEozZKQ8kisd3TibCSJEuvgZGASQHuwDqQAtDnr9UaAjZT1cDnghXjtqZaI1vLbCj5t7JWoC8uWtuT1WmXhNMxnnbSTDsZw4HzgRKAfwPrBesDyZZtiO/8AYNuXJC0gLSAt0PwW+H/Bka9mqeCBpgAAAABJRU5ErkJggg==;" parent="1" vertex="1">
          <mxGeometry x="1494" y="397" width="124.74" height="70" as="geometry" />
        </mxCell>
        <mxCell id="XkX4MEr9UzN4_RxHqZWG-27" value="" style="whiteSpace=wrap;html=1;aspect=fixed;fillColor=none;dashed=1;strokeWidth=3;" parent="1" vertex="1">
          <mxGeometry x="949.5" y="422.5" width="261" height="261" as="geometry" />
        </mxCell>
      </root>
    </mxGraphModel>
  </diagram>
</mxfile>
